# xmcd
#
# Track frame offsets:
#	150
#	17858
#	38039
#	55284
#	74673
#	91123
#	106147
#	117003
#	138043
#	155990
#	176108
#	193277
#
# Disc length: 2937 seconds
#
# Revision: 1
# Processed by: cddbd v1.5.2PL0 Copyright (c) Steve Scherf et al.
# Submitted via: audiograbber 1.83.01
#
DISCID=a70b770c
DTITLE=Jim Byrnes - St. Louis Times
DYEAR=2014
DGENRE=Blues
TTITLE0=I Get Evil
TTITLE1=Somebody Lied
TTITLE2=Nadine
TTITLE3=Old Dog, New Tricks
TTITLE4=You'll Miss Me (When I'm Gone)
TTITLE5=The Duck's Yas Yas Yas
TTITLE6=The Journey Home
TTITLE7=St. Louis Blues
TTITLE8=Cake Alley
TTITLE9=I Need a Change
TTITLE10=That Will Never Do
TTITLE11=Another Night to Cry
EXTD=
EXTT0=
EXTT1=
EXTT2=
EXTT3=
EXTT4=
EXTT5=
EXTT6=
EXTT7=
EXTT8=
EXTT9=
EXTT10=
EXTT11=
PLAYORDER=
